ffmpeg version 4.2.4-1ubuntu0.1 Copyright (c) 2000-2020 the FFmpeg developers
  built with gcc 9 (Ubuntu 9.3.0-10ubuntu2)
  configuration: --prefix=/usr --extra-version=1ubuntu0.1 --toolchain=hardened --libdir=/usr/lib/x86_64-linux-gnu --incdir=/usr/include/x86_64-linux-gnu --arch=amd64 --enable-gpl --disable-stripping --enable-avresample --disable-filter=resample --enable-avisynth --enable-gnutls --enable-ladspa --enable-libaom --enable-libass --enable-libbluray --enable-libbs2b --enable-libcaca --enable-libcdio --enable-libcodec2 --enable-libflite --enable-libfontconfig --enable-libfreetype --enable-libfribidi --enable-libgme --enable-libgsm --enable-libjack --enable-libmp3lame --enable-libmysofa --enable-libopenjpeg --enable-libopenmpt --enable-libopus --enable-libpulse --enable-librsvg --enable-librubberband --enable-libshine --enable-libsnappy --enable-libsoxr --enable-libspeex --enable-libssh --enable-libtheora --enable-libtwolame --enable-libvidstab --enable-libvorbis --enable-libvpx --enable-libwavpack --enable-libwebp --enable-libx265 --enable-libxml2 --enable-libxvid --enable-libzmq --enable-libzvbi --enable-lv2 --enable-omx --enable-openal --enable-opencl --enable-opengl --enable-sdl2 --enable-libdc1394 --enable-libdrm --enable-libiec61883 --enable-nvenc --enable-chromaprint --enable-frei0r --enable-libx264 --enable-shared
  libavutil      56. 31.100 / 56. 31.100
  libavcodec     58. 54.100 / 58. 54.100
  libavformat    58. 29.100 / 58. 29.100
  libavdevice    58.  8.100 / 58.  8.100
  libavfilter     7. 57.100 /  7. 57.100
  libavresample   4.  0.  0 /  4.  0.  0
  libswscale      5.  5.100 /  5.  5.100
  libswresample   3.  5.100 /  3.  5.100
  libpostproc    55.  5.100 / 55.  5.100
Input #0, mov,mp4,m4a,3gp,3g2,mj2, from '../sampleVideo.mp4':
  Metadata:
    major_brand     : isom
    minor_version   : 512
    compatible_brands: isomiso2avc1mp41
    encoder         : Lavf58.51.101
  Duration: 00:03:03.36, start: 0.000000, bitrate: 4382 kb/s
    Stream #0:0(und): Video: h264 (High) (avc1 / 0x31637661), yuv420p, 1920x1080 [SAR 1:1 DAR 16:9], 4384 kb/s, 29.57 fps, 30 tbr, 90k tbn, 60 tbc (default)
    Metadata:
      handler_name    : VideoHandler
    Stream #0:1(und): Audio: aac (LC) (mp4a / 0x6134706D), 48000 Hz, stereo, fltp, 2 kb/s (default)
    Metadata:
      handler_name    : SoundHandler
Stream mapping:
  Stream #0:0 -> #0:0 (h264 (native) -> mpeg4 (native))
  Stream #0:1 -> #0:1 (aac (native) -> mp3 (libmp3lame))
Output #0, avi, to '../sampleVideo_converted.avi':
  Metadata:
    major_brand     : isom
    minor_version   : 512
    compatible_brands: isomiso2avc1mp41
    ISFT            : Lavf58.29.100
    Stream #0:0(und): Video: mpeg4 (FMP4 / 0x34504D46), yuv420p, 1920x1080 [SAR 1:1 DAR 16:9], q=2-31, 200 kb/s, 30 fps, 30 tbn, 30 tbc (default)
    Metadata:
      handler_name    : VideoHandler
      encoder         : Lavc58.54.100 mpeg4
    Side data:
      cpb: bitrate max/min/avg: 0/0/200000 buffer size: 0 vbv_delay: -1
    Stream #0:1(und): Audio: mp3 (libmp3lame) (U[0][0][0] / 0x0055), 48000 Hz, stereo, fltp (default)
    Metadata:
      handler_name    : SoundHandler
      encoder         : Lavc58.54.100 libmp3lame
frame=   85 fps=0.0 q=24.8 size=     266kB time=00:00:02.92 bitrate= 743.6kbits/s speed=5.84x    frame=  177 fps=176 q=31.0 size=     778kB time=00:00:05.97 bitrate=1066.2kbits/s speed=5.95x    frame=  269 fps=178 q=31.0 size=    1034kB time=00:00:09.04 bitrate= 936.0kbits/s speed=   6x    frame=  361 fps=180 q=24.8 size=    1546kB time=00:00:12.12 bitrate=1044.8kbits/s speed=6.03x    frame=  455 fps=181 q=31.0 size=    2058kB time=00:00:15.26 bitrate=1104.4kbits/s speed=6.08x    frame=  547 fps=182 q=31.0 size=    2314kB time=00:00:18.30 bitrate=1035.8kbits/s speed=6.07x    frame=  640 fps=182 q=31.0 size=    2826kB time=00:00:21.40 bitrate=1081.3kbits/s speed=6.08x    frame=  732 fps=182 q=31.0 size=    3082kB time=00:00:24.46 bitrate=1031.8kbits/s speed=6.09x    frame=  824 fps=182 q=31.0 size=    3594kB time=00:00:27.55 bitrate=1068.5kbits/s speed=6.09x    frame=  914 fps=182 q=31.0 size=    3850kB time=00:00:31.03 bitrate=1016.2kbits/s speed=6.17x    frame= 1006 fps=182 q=31.0 size=    4362kB time=00:00:34.10 bitrate=1047.7kbits/s speed=6.16x    frame= 1097 fps=182 q=31.0 size=    4618kB time=00:00:37.15 bitrate=1018.2kbits/s speed=6.16x    frame= 1188 fps=182 q=31.0 size=    5130kB time=00:00:40.17 bitrate=1046.0kbits/s speed=6.15x    frame= 1278 fps=182 q=31.0 size=    5386kB time=00:00:43.17 bitrate=1021.9kbits/s speed=6.13x    frame= 1372 fps=182 q=31.0 size=    5898kB time=00:00:46.32 bitrate=1043.1kbits/s speed=6.14x    frame= 1464 fps=182 q=31.0 size=    6154kB time=00:00:49.39 bitrate=1020.6kbits/s speed=6.14x    frame= 1558 fps=182 q=31.0 size=    6666kB time=00:00:52.51 bitrate=1039.9kbits/s speed=6.14x    frame= 1650 fps=182 q=31.0 size=    6922kB time=00:00:55.58 bitrate=1020.1kbits/s speed=6.14x    frame= 1742 fps=182 q=31.0 size=    7434kB time=00:00:58.65 bitrate=1038.2kbits/s speed=6.14x    frame= 1831 fps=182 q=31.0 size=    7690kB time=00:01:02.13 bitrate=1013.8kbits/s speed=6.18x    frame= 1922 fps=182 q=31.0 size=    8202kB time=00:01:05.18 bitrate=1030.8kbits/s speed=6.18x    frame= 2012 fps=182 q=31.0 size=    8714kB time=00:01:08.18 bitrate=1046.9kbits/s speed=6.17x    frame= 2106 fps=182 q=31.0 size=    8970kB time=00:01:11.32 bitrate=1030.2kbits/s speed=6.17x    frame= 2196 fps=182 q=31.0 size=    9482kB time=00:01:14.30 bitrate=1045.4kbits/s speed=6.16x    frame= 2289 fps=182 q=31.0 size=    9738kB time=00:01:17.42 bitrate=1030.3kbits/s speed=6.16x    frame= 2380 fps=182 q=31.0 size=   10250kB time=00:01:20.44 bitrate=1043.7kbits/s speed=6.15x    frame= 2473 fps=182 q=24.8 size=   10506kB time=00:01:23.54 bitrate=1030.2kbits/s speed=6.15x    frame= 2566 fps=182 q=31.0 size=   11018kB time=00:01:26.66 bitrate=1041.5kbits/s speed=6.16x    frame= 2660 fps=182 q=31.0 size=   11274kB time=00:01:29.76 bitrate=1028.8kbits/s speed=6.16x    frame= 2750 fps=182 q=31.0 size=   11786kB time=00:01:33.31 bitrate=1034.7kbits/s speed=6.19x    frame= 2841 fps=182 q=31.0 size=   12042kB time=00:01:36.33 bitrate=1024.0kbits/s speed=6.18x    frame= 2932 fps=182 q=31.0 size=   12554kB time=00:01:39.38 bitrate=1034.8kbits/s speed=6.18x    frame= 3023 fps=182 q=31.0 size=   12810kB time=00:01:42.43 bitrate=1024.5kbits/s speed=6.18x    frame= 3115 fps=182 q=31.0 size=   13322kB time=00:01:45.48 bitrate=1034.6kbits/s speed=6.17x    frame= 3208 fps=182 q=31.0 size=   13834kB time=00:01:48.57 bitrate=1043.7kbits/s speed=6.17x    frame= 3300 fps=182 q=31.0 size=   14090kB time=00:01:51.64 bitrate=1033.8kbits/s speed=6.17x    frame= 3392 fps=182 q=31.0 size=   14602kB time=00:01:54.72 bitrate=1042.7kbits/s speed=6.17x    frame= 3484 fps=182 q=31.0 size=   14858kB time=00:01:57.79 bitrate=1033.3kbits/s speed=6.17x    frame= 3576 fps=182 q=31.0 size=   15114kB time=00:02:00.86 bitrate=1024.4kbits/s speed=6.17x    frame= 3665 fps=182 q=31.0 size=   15626kB time=00:02:04.32 bitrate=1029.7kbits/s speed=6.18x    frame= 3756 fps=182 q=31.0 size=   16138kB time=00:02:07.34 bitrate=1038.1kbits/s speed=6.18x    frame= 3848 fps=182 q=31.0 size=   16394kB time=00:02:10.41 bitrate=1029.8kbits/s speed=6.18x    frame= 3941 fps=182 q=31.0 size=   16906kB time=00:02:13.53 bitrate=1037.1kbits/s speed=6.18x    frame= 4031 fps=182 q=31.0 size=   17162kB time=00:02:16.53 bitrate=1029.7kbits/s speed=6.17x    frame= 4123 fps=182 q=31.0 size=   17674kB time=00:02:19.58 bitrate=1037.2kbits/s speed=6.17x    frame= 4215 fps=182 q=31.0 size=   17930kB time=00:02:22.65 bitrate=1029.6kbits/s speed=6.17x    frame= 4308 fps=182 q=31.0 size=   18442kB time=00:02:25.75 bitrate=1036.5kbits/s speed=6.17x    frame= 4399 fps=182 q=31.0 size=   18698kB time=00:02:28.77 bitrate=1029.5kbits/s speed=6.17x    frame= 4490 fps=182 q=31.0 size=   19210kB time=00:02:31.80 bitrate=1036.7kbits/s speed=6.16x    frame= 4582 fps=182 q=31.0 size=   19466kB time=00:02:35.42 bitrate=1026.0kbits/s speed=6.19x    frame= 4673 fps=182 q=31.0 size=   19978kB time=00:02:38.44 bitrate=1032.9kbits/s speed=6.18x    frame= 4761 fps=182 q=31.0 size=   20234kB time=00:02:41.37 bitrate=1027.1kbits/s speed=6.18x    frame= 4851 fps=182 q=31.0 size=   20746kB time=00:02:44.37 bitrate=1033.9kbits/s speed=6.17x    frame= 4943 fps=182 q=31.0 size=   21258kB time=00:02:47.44 bitrate=1040.0kbits/s speed=6.17x    frame= 5036 fps=182 q=31.0 size=   21514kB time=00:02:50.56 bitrate=1033.3kbits/s speed=6.17x    frame= 5126 fps=182 q=31.0 size=   22026kB time=00:02:53.54 bitrate=1039.7kbits/s speed=6.17x    frame= 5220 fps=182 q=31.0 size=   22282kB time=00:02:56.68 bitrate=1033.1kbits/s speed=6.17x    frame= 5311 fps=182 q=31.0 size=   22538kB time=00:02:59.71 bitrate=1027.4kbits/s speed=6.17x    frame= 5404 fps=182 q=31.0 size=   23050kB time=00:03:03.24 bitrate=1030.5kbits/s speed=6.18x    frame= 5406 fps=182 q=31.0 Lsize=   23399kB time=00:03:03.36 bitrate=1045.4kbits/s speed=6.18x    
video:20213kB audio:2865kB subtitle:0kB other streams:0kB global headers:0kB muxing overhead: 1.387054%
